<svg width="0" height="0" class="hidden">
  <symbol xmlns="http://www.w3.org/2000/svg" viewBox="0 0 51 51" id="chevron">
    <circle cx="25.5" cy="25.5" r="25.5" fill="#393939"></circle>
    <rect x="24.4" y="27.9" width="1.6" height="15.24" rx=".8" transform="rotate(-39 11.114 37.674)"></rect>
    <rect x="33.3" y="27.9" width="1.6" height="15.24" rx=".8" transform="rotate(37.3 44.444 24.605)"></rect>
  </symbol>
  <symbol xmlns="http://www.w3.org/2000/svg" viewBox="0 0 64 64" id="computer">
    <path d="M13.293 14.293l-3 3a1 1 0 000 1.414l3 3 1.414-1.414L12.414 18l2.293-2.293zm2.763 7.359l2.999-7.998 1.872.702-2.999 7.998zm7.651.055l3-3a1 1 0 000-1.414l-3-3-1.414 1.414L24.586 18l-2.293 2.293zM10 26h4v2h-4zm6 0h10v2H16zm-4 4h4v2h-4zm6 0h10v2H18zm12 0h2v2h-2zm-18 4h4v2h-4zm6 0h10v2H18zm12 0h2v2h-2zm31.142-20.99l-2.682-.383a10.86 10.86 0 00-.679-1.639l1.625-2.166a1 1 0 00-.093-1.307l-2.828-2.828a1 1 0 00-1.306-.093l-2.167 1.624a10.9 10.9 0 00-1.639-.678l-.383-2.682A1 1 0 0050 2h-4a1 1 0 00-.99.858l-.383 2.682a10.855 10.855 0 00-1.639.678l-2.167-1.624a1 1 0 00-1.306.093l-2.828 2.828a1 1 0 00-.093 1.307l1.625 2.166a10.86 10.86 0 00-.679 1.639l-2.682.383A1 1 0 0034 14v4a1 1 0 00.858.99l2.682.383a10.86 10.86 0 00.679 1.639l-1.625 2.166a1 1 0 00.093 1.307l2.828 2.828a1 1 0 001.306.093l2.167-1.624a10.855 10.855 0 001.639.678l.383 2.682A1 1 0 0046 30h4a1 1 0 00.99-.858l.383-2.682a10.9 10.9 0 001.639-.678l2.167 1.624a1 1 0 001.306-.093l2.828-2.828a1 1 0 00.093-1.307l-1.625-2.166a10.86 10.86 0 00.679-1.639l2.682-.383A1 1 0 0062 18v-4a1 1 0 00-.858-.99zM60 17.133l-2.463.352a1 1 0 00-.827.742 8.923 8.923 0 01-.977 2.357 1 1 0 00.061 1.111l1.492 1.99-1.6 1.6-1.991-1.492a1 1 0 00-1.11-.06 8.859 8.859 0 01-2.356.975 1 1 0 00-.744.828L49.133 28h-2.266l-.351-2.463a1 1 0 00-.744-.828 8.859 8.859 0 01-2.356-.975 1 1 0 00-1.11.06l-1.991 1.492-1.6-1.6 1.492-1.99a1 1 0 00.061-1.111 8.923 8.923 0 01-.977-2.357 1 1 0 00-.827-.742L36 17.133v-2.266l2.463-.352a1 1 0 00.827-.742 8.923 8.923 0 01.977-2.357 1 1 0 00-.061-1.111l-1.492-1.99 1.6-1.6 1.991 1.492a1 1 0 001.11.06 8.859 8.859 0 012.356-.975 1 1 0 00.744-.828L46.867 4h2.266l.351 2.463a1 1 0 00.744.828 8.859 8.859 0 012.356.975 1 1 0 001.11-.06l1.991-1.492 1.6 1.6-1.492 1.99a1 1 0 00-.061 1.111 8.923 8.923 0 01.977 2.357 1 1 0 00.827.742l2.464.353z"></path>
    <path d="M48 10a6 6 0 106 6 6.006 6.006 0 00-6-6zm0 10a4 4 0 114-4 4 4 0 01-4 4z"></path>
    <path d="M52 40H4V15a3 3 0 013-3h28v-2H7a5.006 5.006 0 00-5 5v30a5.006 5.006 0 005 5h12.867l-.75 6H17a2 2 0 00-2 2v2a2 2 0 002 2h22a2 2 0 002-2v-2a2 2 0 00-2-2h-2.117l-.75-6H49a5.006 5.006 0 005-5V29h-2zM39 60H17v-2h22zm-4.133-4H21.133l.75-6h12.234zM49 48H7a3 3 0 01-3-3v-3h48v3a3 3 0 01-3 3z"></path>
    <path d="M46 44h2v2h-2z"></path>
  </symbol>
  <symbol xmlns="http://www.w3.org/2000/svg" viewBox="0 0 24 24" id="menu">
    <path d="M21.5 24h-19A2.503 2.503 0 010 21.5v-19C0 1.122 1.121 0 2.5 0h19C22.879 0 24 1.122 24 2.5v19c0 1.378-1.121 2.5-2.5 2.5zM2.5 1C1.673 1 1 1.673 1 2.5v19c0 .827.673 1.5 1.5 1.5h19c.827 0 1.5-.673 1.5-1.5v-19c0-.827-.673-1.5-1.5-1.5z"></path>
    <path d="M16.5 8h-9a.5.5 0 010-1h9a.5.5 0 010 1zm0 4.5h-9a.5.5 0 010-1h9a.5.5 0 010 1zm0 4.5h-9a.5.5 0 010-1h9a.5.5 0 010 1z"></path>
  </symbol>
  <symbol xmlns="http://www.w3.org/2000/svg" viewBox="0 0 21.8 23.8" id="search">
    <path d="M.1 8.6a8.7 8.7 0 00.8 4.8 1 1 0 001.2.4.8.8 0 00.4-1.2 8.3 8.3 0 01-.7-3.8A7.62 7.62 0 0117 9.9a7.7 7.7 0 01-11.8 5.8.8.8 0 00-1.2.2.9.9 0 00.2 1.3 10 10 0 004.5 1.5 9.3 9.3 0 006.1-1.7l5.5 6.4a.9.9 0 00.6.3.7.7 0 00.7-.2.9.9 0 00.1-1.2l-5.6-6.4a8.9 8.9 0 002.6-5.8A9.33 9.33 0 10.1 8.6z" fill="#ecf6fc"></path>
  </symbol>
  <symbol xmlns="http://www.w3.org/2000/svg" viewBox="0 0 485.656 485.656" id="settings">
    <path d="M334.512 312h-200a8 8 0 00-5.656 2.344l-96 96 11.312 11.312L137.824 328h187.888c-1.664 9.496-6.888 24-23.2 24h-88v16h88c31.64 0 40-31.4 40-48a8 8 0 00-8-8z"></path>
    <path d="M436.168 258.344a8 8 0 00-11.312 0l-72 72 11.312 11.312 65.712-65.712c10.828 14.37 8.629 34.68-5.024 46.4L331.2 416H166.512a8 8 0 00-5.656 2.344l-56 56 11.312 11.312L169.824 432h164.688a8 8 0 005.656-2.344l96-96c29.792-29.792 13.024-62.288 0-75.312zM390.512 112H361.76a111.297 111.297 0 00-8.792-21.192l20.344-20.344a8 8 0 000-11.312L339.36 25.208a8 8 0 00-11.312 0l-20.344 20.344a110.95 110.95 0 00-21.192-8.8V8a8 8 0 00-8-8h-48a8 8 0 00-8 8v28.752a110.95 110.95 0 00-21.192 8.8l-20.344-20.344a8 8 0 00-11.312 0l-33.952 33.944a8 8 0 000 11.312l20.352 20.344a111.392 111.392 0 00-8.8 21.192h-28.752a8 8 0 00-8 8v48a8 8 0 008 8h28.752a111.297 111.297 0 008.792 21.192l-20.344 20.344a8 8 0 000 11.312l33.952 33.952a8.232 8.232 0 0011.312 0l20.344-20.352a111.392 111.392 0 0021.192 8.8V280a8 8 0 008 8h48a8 8 0 008-8v-28.752a111.454 111.454 0 0021.192-8.792l20.344 20.344a8 8 0 0011.312 0l33.944-33.952a8 8 0 000-11.312l-20.344-20.344a111.392 111.392 0 008.8-21.192h28.752a8 8 0 008-8v-48a8 8 0 00-8-8zm-7.999 48h-26.888a8 8 0 00-7.784 6.16 95.729 95.729 0 01-11.68 28.144 8.001 8.001 0 001.152 9.864l19.032 19.024-22.64 22.64-19.024-19.04a8.001 8.001 0 00-9.864-1.152 95.436 95.436 0 01-28.144 11.688 8 8 0 00-6.16 7.784V272h-32v-26.88a8 8 0 00-6.16-7.784 95.436 95.436 0 01-28.144-11.688 8.001 8.001 0 00-9.864 1.152l-19.024 19.04-22.64-22.64 19.032-19.04a8.001 8.001 0 001.152-9.864 95.74 95.74 0 01-11.68-28.144 8 8 0 00-7.784-6.16h-26.888v-32H153.4a8 8 0 007.784-6.16 95.74 95.74 0 0111.68-28.144 8.001 8.001 0 00-1.152-9.864L152.68 64.8l22.632-22.624 19.032 19.032a8.001 8.001 0 009.864 1.152 95.198 95.198 0 0128.144-11.68 8 8 0 006.16-7.784V16h32v26.896a8 8 0 006.168 7.784 95.198 95.198 0 0128.144 11.68 8.001 8.001 0 009.864-1.152l19.024-19.032L356.345 64.8l-19.032 19.032a8.001 8.001 0 00-1.152 9.864 95.74 95.74 0 0111.68 28.144 8 8 0 007.784 6.16h26.888v32z"></path>
    <path d="M254.512 96c-26.51 0-48 21.49-48 48s21.491 48 48 48c26.499-.026 47.974-21.501 48-48 0-26.51-21.49-48-48-48zm0 80c-17.673 0-32-14.327-32-32 0-17.673 14.327-32 32-32 17.673 0 32 14.327 32 32 0 17.673-14.327 32-32 32z"></path>
  </symbol>
  <symbol xmlns="http://www.w3.org/2000/svg" viewBox="-42 0 512 512.002" id="userblack">
    <path d="M210.352 246.633c33.882 0 63.222-12.153 87.195-36.13 23.973-23.972 36.125-53.304 36.125-87.19 0-33.876-12.152-63.211-36.129-87.192C273.566 12.152 244.23 0 210.352 0c-33.887 0-63.22 12.152-87.192 36.125s-36.129 53.309-36.129 87.188c0 33.886 12.156 63.222 36.133 87.195 23.977 23.969 53.313 36.125 87.188 36.125zm215.777 147.07c-.692-9.976-2.09-20.86-4.149-32.351-2.078-11.579-4.753-22.524-7.957-32.528-3.308-10.34-7.808-20.55-13.37-30.336-5.774-10.156-12.555-19-20.165-26.277-7.957-7.613-17.699-13.734-28.965-18.2-11.226-4.44-23.668-6.69-36.976-6.69-5.227 0-10.281 2.144-20.043 8.5a2711.03 2711.03 0 01-20.879 13.46c-6.707 4.274-15.793 8.278-27.016 11.903-10.949 3.543-22.066 5.34-33.039 5.34-10.972 0-22.086-1.797-33.047-5.34-11.21-3.622-20.296-7.625-26.996-11.899a2853.13 2853.13 0 01-20.898-13.469c-9.75-6.355-14.809-8.5-20.035-8.5-13.313 0-25.75 2.254-36.973 6.7-11.258 4.457-21.004 10.578-28.969 18.199-7.605 7.281-14.39 16.12-20.156 26.273-5.558 9.785-10.058 19.992-13.371 30.34-3.2 10.004-5.875 20.945-7.953 32.524-2.059 11.476-3.457 22.363-4.149 32.363A438.821 438.821 0 000 423.949c0 26.727 8.496 48.363 25.25 64.32 16.547 15.747 38.441 23.735 65.066 23.735h246.532c26.625 0 48.511-7.984 65.062-23.734 16.758-15.946 25.254-37.586 25.254-64.325-.004-10.316-.351-20.492-1.035-30.242zm0 0"></path>
  </symbol>
  <symbol xmlns="http://www.w3.org/2000/svg" viewBox="-42 0 512 512.001" id="userwhite">
    <path d="M210.352 246.633c33.882 0 63.218-12.153 87.195-36.13 23.969-23.972 36.125-53.304 36.125-87.19 0-33.876-12.152-63.211-36.129-87.192C273.566 12.152 244.23 0 210.352 0c-33.887 0-63.22 12.152-87.192 36.125s-36.129 53.309-36.129 87.188c0 33.886 12.156 63.222 36.13 87.195 23.98 23.969 53.316 36.125 87.19 36.125zM144.379 57.34c18.394-18.395 39.973-27.336 65.973-27.336 25.996 0 47.578 8.941 65.976 27.336 18.395 18.398 27.34 39.98 27.34 65.972 0 26-8.945 47.579-27.34 65.977-18.398 18.399-39.98 27.34-65.976 27.34-25.993 0-47.57-8.945-65.973-27.34-18.399-18.394-27.344-39.976-27.344-65.976 0-25.993 8.945-47.575 27.344-65.973zm281.75 336.363c-.692-9.976-2.09-20.86-4.149-32.351-2.078-11.579-4.753-22.524-7.957-32.528-3.312-10.34-7.808-20.55-13.375-30.336-5.77-10.156-12.55-19-20.16-26.277-7.957-7.613-17.699-13.734-28.965-18.2-11.226-4.44-23.668-6.69-36.976-6.69-5.227 0-10.281 2.144-20.043 8.5a2711.03 2711.03 0 01-20.879 13.46c-6.707 4.274-15.793 8.278-27.016 11.903-10.949 3.543-22.066 5.34-33.043 5.34-10.968 0-22.086-1.797-33.043-5.34-11.21-3.622-20.3-7.625-26.996-11.899a2853.13 2853.13 0 01-20.898-13.469c-9.754-6.355-14.809-8.5-20.035-8.5-13.313 0-25.75 2.254-36.973 6.7-11.258 4.457-21.004 10.578-28.969 18.199-7.609 7.281-14.39 16.12-20.156 26.273-5.558 9.785-10.058 19.992-13.371 30.34-3.2 10.004-5.875 20.945-7.953 32.524-2.063 11.476-3.457 22.363-4.149 32.363C.343 403.492 0 413.668 0 423.949c0 26.727 8.496 48.363 25.25 64.32C41.797 504.017 63.688 512 90.316 512h246.532c26.62 0 48.511-7.984 65.062-23.73 16.758-15.946 25.254-37.59 25.254-64.325-.004-10.316-.351-20.492-1.035-30.242zm-44.906 72.828c-10.934 10.406-25.45 15.465-44.38 15.465H90.317c-18.933 0-33.449-5.059-44.379-15.46-10.722-10.208-15.933-24.141-15.933-42.587 0-9.594.316-19.066.95-28.16.616-8.922 1.878-18.723 3.75-29.137 1.847-10.285 4.198-19.937 6.995-28.675 2.684-8.38 6.344-16.676 10.883-24.668 4.332-7.618 9.316-14.153 14.816-19.418 5.145-4.926 11.63-8.957 19.27-11.98 7.066-2.798 15.008-4.329 23.629-4.56 1.05.56 2.922 1.626 5.953 3.602 6.168 4.02 13.277 8.606 21.137 13.625 8.86 5.649 20.273 10.75 33.91 15.152 13.941 4.508 28.16 6.797 42.273 6.797 14.114 0 28.336-2.289 42.27-6.793 13.648-4.41 25.058-9.507 33.93-15.164 8.043-5.14 14.953-9.593 21.12-13.617 3.032-1.973 4.903-3.043 5.954-3.601 8.625.23 16.566 1.761 23.636 4.558 7.637 3.024 14.122 7.059 19.266 11.98 5.5 5.262 10.484 11.798 14.816 19.423 4.543 7.988 8.208 16.289 10.887 24.66 2.801 8.75 5.156 18.398 7 28.675 1.867 10.434 3.133 20.239 3.75 29.145v.008c.637 9.058.957 18.527.961 28.148-.004 18.45-5.215 32.38-15.937 42.582zm0 0"></path>
  </symbol>
  <symbol xmlns="http://www.w3.org/2000/svg" viewBox="0 0 92.896 92.896" id="logom">
    <path d="M0 51.115v39.046h33.818l-.007-5.524zm59.078 39.053h33.818V51.121l-33.81 33.524zM92.896 2.925L46.547 48.879 0 2.729v39.709l46.547 46.15 46.342-45.947z"></path>
  </symbol>
</svg>